<svg xmlns="http://www.w3.org/2000/svg" fill="none" viewBox="0 0 216 27"><path fill="#363636" fill-rule="evenodd" d="m25 20 5 10H0l5-10zM15 0l5 10H10zm26.667 0a5 5 0 1 1 0 10 5 5 0 0 1 0-10m-5 30V20h10v10zM75 20H56.667v10H75a5 5 0 0 0 0-10M56.667 0h11.666a5 5 0 1 1 0 10H56.667zm20.927 43.851q.498.35.564.976h1.708a2.55 2.55 0 0 0-.464-1.464q-.45-.64-1.239-1Q77.38 42 76.336 42q-1.029 0-1.842.364-.812.358-1.286 1.009-.47.65-.47 1.516 0 1.052.7 1.689.703.63 1.912.942l1.115.287q.526.134.918.306.397.168.618.421a.94.94 0 0 1 .224.632q-.004.42-.253.736-.25.31-.689.488-.435.172-1.014.172-.555 0-1.005-.167a1.67 1.67 0 0 1-.722-.507q-.277-.34-.316-.852h-1.745q.037.976.507 1.655.473.68 1.31 1.034.842.353 1.985.353 1.178 0 2.004-.363.833-.368 1.273-1.019.44-.655.44-1.516 0-.636-.24-1.11a2.5 2.5 0 0 0-.65-.808 3.8 3.8 0 0 0-.923-.555 6.3 6.3 0 0 0-1.067-.35l-.918-.229q-.301-.072-.598-.177a2.7 2.7 0 0 1-.54-.258 1.3 1.3 0 0 1-.388-.383 1 1 0 0 1-.139-.53q.004-.37.216-.656a1.4 1.4 0 0 1 .607-.455q.397-.167.952-.167.789 0 1.282.35m-14.621-1.717v1.488h3.028v8.308h1.76v-8.308h3.028v-1.488zm-2.03 0v9.796h-1.775v-9.796zm-11.166 0v9.796h3.965q1.124 0 1.866-.349.741-.35 1.11-.952.368-.607.368-1.368 0-.745-.306-1.272a2.2 2.2 0 0 0-.79-.813 2.1 2.1 0 0 0-1-.32v-.096q.48-.115.866-.378.388-.264.617-.684.23-.426.23-1.024 0-.728-.354-1.301-.35-.574-1.057-.904-.703-.335-1.765-.335zm3.683 8.313H51.55v-2.87h1.957q.55 0 .947.206.398.201.612.555.216.35.215.784 0 .584-.43.957-.426.368-1.392.368m-.153-4.147H51.55v-2.702h1.794q.785 0 1.182.368.4.368.401.938 0 .43-.215.746-.21.31-.579.483a2 2 0 0 1-.827.167m-9.883-4.166v9.796h-1.578l-4.616-6.672h-.082v6.672h-1.774v-9.796h1.588l4.611 6.678h.086v-6.678zm-10.51 9.796v-9.796h-1.775v9.796zm-13.824 0v-9.796h1.775v8.309h4.315v1.487zm-8.168-9.796v9.796h6.09v-1.487h-4.315v-8.31zM1.894 51.93H0l3.449-9.796h2.19l3.454 9.796H7.2l-.812-2.415H2.704zm2.688-7.787 1.326 3.946H3.182l1.324-3.946z" clip-rule="evenodd"/></svg>